<svg width="34" height="28" viewBox="0 0 34 28" fill="none" xmlns="http://www.w3.org/2000/svg">
<path d="M3.66683 27.3334C2.75017 27.3334 1.96517 27.0068 1.31183 26.3534C0.658499 25.7001 0.332388 24.9156 0.333499 24.0001V4.00008C0.333499 3.08342 0.660166 2.29842 1.3135 1.64508C1.96683 0.991751 2.75128 0.66564 3.66683 0.666751H30.3335C31.2502 0.666751 32.0352 0.993417 32.6885 1.64675C33.3418 2.30008 33.6679 3.08453 33.6668 4.00008V24.0001C33.6668 24.9167 33.3402 25.7018 32.6868 26.3551C32.0335 27.0084 31.2491 27.3345 30.3335 27.3334H3.66683ZM30.3335 7.33342L17.8752 15.1251C17.7363 15.2084 17.5902 15.2712 17.4368 15.3134C17.2835 15.3556 17.1379 15.3762 17.0002 15.3751C16.8613 15.3751 16.7152 15.3545 16.5618 15.3134C16.4085 15.2723 16.2629 15.2095 16.1252 15.1251L3.66683 7.33342V24.0001H30.3335V7.33342ZM17.0002 12.3334L30.3335 4.00008H3.66683L17.0002 12.3334ZM3.66683 7.75008V5.29175V5.33342V5.31342V7.75008Z" fill="#4D4D4D"/>
</svg>
