<svg width="34" height="34" viewBox="0 0 34 34" fill="none" xmlns="http://www.w3.org/2000/svg">
<path d="M17.0002 30.3335C24.3335 30.3335 30.3335 24.3335 30.3335 17.0002C30.3335 9.66683 24.3335 3.66683 17.0002 3.66683C9.66683 3.66683 3.66683 9.66683 3.66683 17.0002C3.66683 24.3335 9.66683 30.3335 17.0002 30.3335ZM17.0002 0.333496C26.1668 0.333496 33.6668 7.8335 33.6668 17.0002C33.6668 26.1668 26.1668 33.6668 17.0002 33.6668C7.8335 33.6668 0.333496 26.1668 0.333496 17.0002C0.333496 7.8335 7.8335 0.333496 17.0002 0.333496ZM17.8335 18.6668H15.3335L8.66683 14.8335L10.0002 12.6668L15.5002 15.8335V8.66683H18.0002V18.6668H17.8335Z" fill="#4D4D4D"/>
</svg>
