<svg width="30" height="30" viewBox="0 0 30 30" fill="none" xmlns="http://www.w3.org/2000/svg">
<path d="M0 28.3333C0 12.6833 12.6833 0 28.3333 0C29.25 0 30 0.75 30 1.66667V7.48333C30 8.4 29.25 9.15 28.3333 9.15C26.2667 9.15 24.25 9.48333 22.3833 10.1C22.2167 10.1667 22.0333 10.1833 21.8667 10.1833C21.4333 10.1833 21.0167 10.0167 20.6833 9.7L17.0167 6.03333C12.3 8.45 8.43334 12.3 6.03333 17.0167L9.7 20.6833C10.1667 21.15 10.3 21.8 10.1167 22.3833C9.5 24.25 9.16667 26.25 9.16667 28.3333C9.16667 29.25 8.41667 30 7.5 30H1.66667C0.75 30 0 29.25 0 28.3333ZM22.3333 6.63333C23.75 6.23333 25.2 5.98334 26.6667 5.88334V3.4C24.4667 3.55 22.35 3.98334 20.3333 4.65L22.3333 6.63333ZM5.9 26.6667C6 25.1833 6.25 23.7333 6.65 22.35L4.65 20.35C3.96667 22.35 3.53333 24.4667 3.38334 26.6667H5.9Z" fill="#4D4D4D"/>
</svg>
