<svg width="34" height="30" viewBox="0 0 34 30" fill="none" xmlns="http://www.w3.org/2000/svg">
<path d="M33.3656 4.89228C33.2948 4.72087 33.1748 4.57431 33.0207 4.47112C32.8666 4.36794 32.6854 4.31277 32.4999 4.31259H27.5624C26.9377 3.18594 26.0253 2.24521 24.9182 1.5864C23.8111 0.9276 22.5491 0.574309 21.2609 0.562588C20.3252 0.550598 19.3966 0.725775 18.5297 1.07782C17.6627 1.42987 16.8748 1.95168 16.2124 2.61259C15.5298 3.28241 14.9879 4.08196 14.6186 4.96423C14.2494 5.84649 14.0603 6.79368 14.0624 7.75009V9.10321C7.49995 7.54071 2.0937 2.14696 2.0312 2.09071C1.90528 1.96567 1.74646 1.87893 1.5732 1.84058C1.39994 1.80223 1.21936 1.81384 1.05243 1.87407C0.885512 1.93429 0.739109 2.04065 0.630244 2.18079C0.521379 2.32093 0.454523 2.48908 0.437446 2.66571C-0.226616 10.0438 1.90932 14.9704 3.8187 17.8048C4.80576 19.2896 6.02249 20.6081 7.42338 21.711C5.00307 24.6798 0.964009 26.2251 0.920259 26.2423C0.786822 26.2917 0.666375 26.3708 0.568042 26.4736C0.469709 26.5764 0.396071 26.7003 0.352708 26.8358C0.309345 26.9713 0.297394 27.1149 0.31776 27.2557C0.338127 27.3965 0.390277 27.5309 0.470259 27.6485C0.624946 27.8798 2.15307 29.9376 7.49995 29.9376C18.4187 29.9376 27.5359 21.5001 28.4093 10.6657L33.1624 5.91415C33.2936 5.78301 33.3829 5.61592 33.419 5.43403C33.4552 5.25213 33.4366 5.0636 33.3656 4.89228ZM26.8374 9.58759C26.676 9.74867 26.5788 9.9631 26.564 10.1907C25.9265 20.2126 17.5515 28.0626 7.49995 28.0626C5.31245 28.0626 3.9437 27.686 3.11557 27.3126C4.8812 26.4251 7.75932 24.6751 9.52963 22.0204C9.60024 21.9142 9.64843 21.7947 9.67127 21.6692C9.6941 21.5438 9.6911 21.415 9.66245 21.2907C9.6335 21.1657 9.57918 21.0479 9.50284 20.9447C9.42651 20.8414 9.3298 20.755 9.2187 20.6907C9.19838 20.6782 7.16713 19.4626 5.31245 16.672C3.12495 13.3751 2.07963 9.37978 2.18745 4.76259C4.51245 6.73134 9.30776 10.2454 14.8437 11.1688C14.9782 11.1916 15.116 11.1847 15.2475 11.1487C15.3791 11.1126 15.5012 11.0484 15.6053 10.9603C15.7095 10.8722 15.7931 10.7625 15.8505 10.6387C15.9079 10.515 15.9375 10.3802 15.9374 10.2438V7.75009C15.936 7.04205 16.0761 6.34088 16.3496 5.68777C16.623 5.03466 17.0242 4.44279 17.5296 3.94696C18.0163 3.46106 18.5951 3.07725 19.232 2.81806C19.869 2.55887 20.5514 2.42952 21.239 2.43759C23.3374 2.46415 25.3015 3.7454 26.1203 5.62509C26.1932 5.7923 26.3134 5.93458 26.4661 6.0345C26.6187 6.13441 26.7972 6.18762 26.9796 6.18759H30.2359L26.8374 9.58759Z" fill="#FAFCFF"/>
</svg>
