<svg width="20" height="20" viewBox="0 0 20 20" fill="none" xmlns="http://www.w3.org/2000/svg">
<path d="M8.80039 12.3998C8.48213 12.3998 8.17691 12.2734 7.95186 12.0483C7.72682 11.8233 7.60039 11.5181 7.60039 11.1998V4.0994C5.82431 4.40509 4.22736 5.36552 3.1248 6.7911C2.02224 8.21668 1.49419 10.0038 1.64489 11.7997C1.79559 13.5956 2.61409 15.2697 3.93881 16.4916C5.26353 17.7135 6.9982 18.3944 8.80039 18.3998C10.502 18.3996 12.1485 17.7969 13.4482 16.6987C14.7479 15.6004 15.6167 14.0775 15.9008 12.3998H8.80039ZM7.60399 2.8838C8.26039 2.7902 8.80039 3.3374 8.80039 3.9998V11.1998H16.0004C16.6628 11.1998 17.21 11.7398 17.1164 12.3962C16.8089 14.4947 15.7192 16.3992 14.066 17.7277C12.4128 19.0562 10.3184 19.7104 8.20292 19.559C6.08747 19.4076 4.10753 18.4618 2.66037 16.9114C1.2132 15.361 0.405883 13.3207 0.400391 11.1998C0.400497 9.17912 1.1288 7.22616 2.45183 5.69882C3.77486 4.17149 5.60398 3.1721 7.60399 2.8838ZM11.2004 8.7998V1.5998C13.11 1.5998 14.9413 2.35837 16.2916 3.70863C17.6418 5.05889 18.4004 6.89024 18.4004 8.7998H11.2004ZM18.4748 9.9998C19.0724 9.9998 19.5872 9.5606 19.5992 8.963L19.6004 8.7998C19.6004 7.68293 19.3778 6.57726 18.9454 5.54748C18.513 4.5177 17.8796 3.58449 17.0822 2.80243C16.2849 2.02037 15.3396 1.40518 14.3016 0.992844C13.2636 0.580506 12.1539 0.3793 11.0372 0.401C10.4396 0.413 10.0004 0.929 10.0004 1.5254V8.7998C10.0004 9.11806 10.1268 9.42328 10.3519 9.64833C10.5769 9.87337 10.8821 9.9998 11.2004 9.9998H18.4748Z" fill="#999999"/>
</svg>
