<svg width="24" height="24" viewBox="0 0 24 24" fill="none" xmlns="http://www.w3.org/2000/svg">
<path d="M15.4291 12.8571C19.6896 12.8571 23.1434 11.3221 23.1434 9.42857C23.1434 7.53502 19.6896 6 15.4291 6C11.1686 6 7.71484 7.53502 7.71484 9.42857C7.71484 11.3221 11.1686 12.8571 15.4291 12.8571Z" stroke="#0252CC" stroke-linecap="round" stroke-linejoin="round"/>
<path d="M7.71484 9.42969V19.7154C7.71484 21.6011 11.1434 23.144 15.4291 23.144C19.7148 23.144 23.1434 21.6011 23.1434 19.7154V9.42969" stroke="#0252CC" stroke-linecap="round" stroke-linejoin="round"/>
<path d="M23.1431 14.5731C23.1431 16.4588 19.7146 18.0017 15.4289 18.0017C11.1431 18.0017 7.71456 16.4588 7.71456 14.5731M15.2574 2.57308C13.2543 1.33687 10.9226 0.738994 8.57171 0.858795C4.30314 0.858795 0.857422 2.40165 0.857422 4.28737C0.857422 5.2988 1.85171 6.20737 3.42885 6.8588" stroke="#0252CC" stroke-linecap="round" stroke-linejoin="round"/>
<path d="M3.42885 17.1462C1.85171 16.4948 0.857422 15.5862 0.857422 14.5748V4.28906" stroke="#0252CC" stroke-linecap="round" stroke-linejoin="round"/>
<path d="M3.42885 12.0011C1.85171 11.3497 0.857422 10.4411 0.857422 9.42969" stroke="#0252CC" stroke-linecap="round" stroke-linejoin="round"/>
</svg>
