<svg width="27" height="22" viewBox="0 0 27 22" fill="none" xmlns="http://www.w3.org/2000/svg">
<path d="M2.66667 21.3333C1.93334 21.3333 1.30534 21.072 0.782669 20.5493C0.260002 20.0267 -0.000886625 19.3991 2.26373e-06 18.6667V2.66667C2.26373e-06 1.93334 0.261336 1.30534 0.784002 0.782669C1.30667 0.260002 1.93422 -0.000886625 2.66667 2.26372e-06H24C24.7333 2.26372e-06 25.3613 0.261335 25.884 0.784002C26.4067 1.30667 26.6676 1.93422 26.6667 2.66667V18.6667C26.6667 19.4 26.4053 20.028 25.8827 20.5507C25.36 21.0733 24.7324 21.3342 24 21.3333H2.66667ZM24 5.33334L14.0333 11.5667C13.9222 11.6333 13.8053 11.6836 13.6827 11.7173C13.56 11.7511 13.4436 11.7676 13.3333 11.7667C13.2222 11.7667 13.1053 11.7502 12.9827 11.7173C12.86 11.6844 12.7436 11.6342 12.6333 11.5667L2.66667 5.33334V18.6667H24V5.33334ZM13.3333 9.33333L24 2.66667H2.66667L13.3333 9.33333ZM2.66667 5.66667V3.7V3.73334V3.71734V5.66667Z" fill="#333333"/>
</svg>
