<svg width="28" height="27" viewBox="0 0 28 27" fill="none" xmlns="http://www.w3.org/2000/svg">
<path d="M26.8976 23.7381C26.0404 22.974 25.29 22.098 24.6665 21.1337C23.9858 19.8026 23.5778 18.349 23.4665 16.8581V12.467C23.4629 11.9336 23.4153 11.4015 23.3243 10.8759C22.6246 10.736 21.9522 10.4839 21.3332 10.1292C21.5691 10.8891 21.689 11.6802 21.6887 12.4759V16.867C21.7977 18.6857 22.2979 20.4594 23.1554 22.067C23.7691 23.0395 24.4972 23.9348 25.3243 24.7337H2.55983C3.38686 23.9348 4.11503 23.0395 4.72872 22.067C5.58615 20.4594 6.08643 18.6857 6.19538 16.867V12.467C6.1907 11.4383 6.38899 10.4187 6.77889 9.46677C7.16878 8.51478 7.74263 7.64906 8.46757 6.91916C9.19252 6.18926 10.0543 5.60953 11.0036 5.21316C11.9529 4.81679 12.9711 4.61156 13.9998 4.60924C15.5054 4.61044 16.9772 5.05568 18.2309 5.88924C18.0927 5.38167 18.0151 4.85951 17.9998 4.33368V3.77368C17.0717 3.31711 16.0746 3.01678 15.0487 2.88479V1.76479C15.0487 1.45007 14.9237 1.14823 14.7011 0.925692C14.4786 0.703149 14.1768 0.578125 13.862 0.578125C13.5473 0.578125 13.2455 0.703149 13.0229 0.925692C12.8004 1.14823 12.6754 1.45007 12.6754 1.76479V2.92924C10.3782 3.25328 8.27589 4.39745 6.75647 6.15051C5.23704 7.90357 4.40314 10.1471 4.40872 12.467V16.8581C4.29739 18.349 3.88941 19.8026 3.20872 21.1337C2.59617 22.0958 1.85778 22.9717 1.01316 23.7381C0.918343 23.8214 0.842352 23.924 0.790242 24.0389C0.738132 24.1539 0.711097 24.2786 0.710938 24.4048V25.6137C0.710938 25.8494 0.804588 26.0755 0.971287 26.2422C1.13799 26.4089 1.36408 26.5026 1.59983 26.5026H26.3109C26.5467 26.5026 26.7728 26.4089 26.9395 26.2422C27.1062 26.0755 27.1998 25.8494 27.1998 25.6137V24.4048C27.1997 24.2786 27.1726 24.1539 27.1205 24.0389C27.0684 23.924 26.9924 23.8214 26.8976 23.7381Z" fill="#333333"/>
</svg>
