<svg width="27" height="26" viewBox="0 0 32 41" fill="none" xmlns="http://www.w3.org/2000/svg">
<path d="M17 8.30084C16.8701 8.30225 16.7411 8.27805 16.6206 8.22963C16.5 8.18121 16.3902 8.10951 16.2973 8.01863C16.2044 7.92775 16.1304 7.81947 16.0794 7.69997C16.0284 7.58047 16.0014 7.4521 16 7.32217C16 3.53551 19.136 0.468841 22.9973 0.468841C23.1273 0.467079 23.2564 0.491035 23.3772 0.53933C23.4979 0.587626 23.6079 0.659308 23.7008 0.750257C23.7937 0.841205 23.8678 0.949626 23.9187 1.06928C23.9696 1.18894 23.9963 1.31748 23.9973 1.44751C23.9973 5.23417 20.864 8.30084 17 8.30084ZM31.6 28.9168C31.9867 29.1995 32.112 29.7168 31.8933 30.1382C28.3733 37.0342 25.5653 40.4688 23 40.4688C21.8053 40.4688 20.632 40.0902 19.488 39.3542C18.6669 38.827 17.7161 38.5371 16.7405 38.5164C15.765 38.4957 14.8027 38.745 13.96 39.2368C12.5733 40.0502 11.2533 40.4688 10 40.4688C6.22667 40.4688 0 29.0902 0 22.8475C0 16.1808 3.57067 11.0982 9 11.0982C11.5547 11.0982 13.76 11.4662 15.6133 12.2155C16.3973 12.5302 17.2853 12.5088 18.0507 12.1488C19.5547 11.4395 21.5387 11.0982 23.9973 11.0982C27.0027 11.0982 29.624 12.5648 31.8 15.4048C31.8787 15.5073 31.9361 15.6244 31.9687 15.7494C32.0013 15.8744 32.0085 16.0046 31.9898 16.1325C31.9712 16.2603 31.9271 16.383 31.8601 16.4935C31.7931 16.604 31.7047 16.6999 31.6 16.7755C29.1707 18.5622 28 20.5648 28 22.8475C28 25.1275 29.1707 27.1328 31.6 28.9168Z" fill="#F8F5F5"/>
</svg>
