<svg width="23" height="23" viewBox="0 0 40 41" fill="none" xmlns="http://www.w3.org/2000/svg">
<g clip-path="url(#clip0_525_1711)">
<path d="M39.9809 20.852C39.9809 19.1748 39.8448 17.9509 39.5503 16.6816H20.3984V24.2516H31.6402C31.4136 26.1329 30.1897 28.966 27.4698 30.8698L27.4317 31.1232L33.4872 35.8143L33.9067 35.8562C37.7597 32.2977 39.9809 27.0621 39.9809 20.852Z" fill="#4285F4"/>
<path d="M20.3984 40.7967C25.9059 40.7967 30.5295 38.9834 33.9067 35.8557L27.4698 30.8693C25.7473 32.0706 23.4355 32.9092 20.3984 32.9092C15.0042 32.9092 10.4259 29.3509 8.79391 24.4326L8.55469 24.4529L2.25812 29.3259L2.17578 29.5548C5.53016 36.2182 12.4203 40.7967 20.3984 40.7967Z" fill="#34A853"/>
<path d="M8.79391 24.4329C8.36328 23.1637 8.11406 21.8037 8.11406 20.3985C8.11406 18.9932 8.36328 17.6334 8.77125 16.3641L8.75984 16.0938L2.38438 11.1426L2.17578 11.2418C0.793281 14.007 0 17.1121 0 20.3985C0 23.6849 0.793281 26.7899 2.17578 29.5551L8.79391 24.4329Z" fill="#FBBC05"/>
<path d="M20.3984 7.88734C24.2288 7.88734 26.8125 9.54187 28.2858 10.9245L34.0427 5.30359C30.507 2.01719 25.9059 0 20.3984 0C12.4203 0 5.53016 4.57828 2.17578 11.2417L8.77125 16.3641C10.4259 11.4458 15.0042 7.88734 20.3984 7.88734Z" fill="#EB4335"/>
</g>
<defs>
<clipPath id="clip0_525_1711">
<rect width="40" height="40.9375" fill="white"/>
</clipPath>
</defs>
</svg>
