<svg width="11" height="19" viewBox="0 0 11 19" fill="none" xmlns="http://www.w3.org/2000/svg">
<path d="M2.14959 0.374218L10.5746 8.77422C10.6746 8.87422 10.7456 8.98255 10.7876 9.09922C10.8296 9.21589 10.8503 9.34089 10.8496 9.47422C10.8496 9.60755 10.8289 9.73255 10.7876 9.84922C10.7463 9.96589 10.6753 10.0742 10.5746 10.1742L2.14959 18.5992C1.91626 18.8326 1.62459 18.9492 1.27459 18.9492C0.924594 18.9492 0.624595 18.8242 0.374595 18.5742C0.124595 18.3242 -0.000405312 18.0326 -0.000405312 17.6992C-0.000405312 17.3659 0.124595 17.0742 0.374595 16.8242L7.72459 9.47422L0.374595 2.12422C0.141261 1.89088 0.0245943 1.60322 0.0245943 1.26122C0.0245943 0.91922 0.149594 0.62355 0.399594 0.374218C0.649594 0.124218 0.941261 -0.000782013 1.27459 -0.000782013C1.60793 -0.000782013 1.89959 0.124218 2.14959 0.374218Z" fill="#1A1A1A"/>
</svg>
