<svg width="23" height="24" viewBox="0 0 23 24" fill="none" xmlns="http://www.w3.org/2000/svg">
<path d="M20.6287 11H14.2287C13.7869 11 13.4287 11.3838 13.4287 11.8571V22.1429C13.4287 22.6162 13.7869 23 14.2287 23H20.6287C21.0705 23 21.4287 22.6162 21.4287 22.1429V11.8571C21.4287 11.3838 21.0705 11 20.6287 11Z" stroke="#999999" stroke-width="1.71429" stroke-linecap="round" stroke-linejoin="round"/>
<path d="M20.7143 1H13.8571C13.3838 1 13 1.38376 13 1.85714V5.30286C13 5.77624 13.3838 6.16 13.8571 6.16H20.7143C21.1877 6.16 21.5714 5.77624 21.5714 5.30286V1.85714C21.5714 1.38376 21.1877 1 20.7143 1Z" stroke="#999999" stroke-width="1.71429" stroke-linecap="round" stroke-linejoin="round"/>
<path d="M8.2 1H1.8C1.35817 1 1 1.38376 1 1.85714V12.1429C1 12.6162 1.35817 13 1.8 13H8.2C8.64183 13 9 12.6162 9 12.1429V1.85714C9 1.38376 8.64183 1 8.2 1Z" stroke="#999999" stroke-width="1.71429" stroke-linecap="round" stroke-linejoin="round"/>
<path d="M8.71429 17.125H1.85714C1.38376 17.125 1 17.5088 1 17.9821V21.4279C1 21.9012 1.38376 22.285 1.85714 22.285H8.71429C9.18767 22.285 9.57143 21.9012 9.57143 21.4279V17.9821C9.57143 17.5088 9.18767 17.125 8.71429 17.125Z" stroke="#999999" stroke-width="1.71429" stroke-linecap="round" stroke-linejoin="round"/>
</svg>
