<svg width="22" height="22" viewBox="0 0 22 22" fill="none" xmlns="http://www.w3.org/2000/svg">
<path d="M9.25 3.25C9.44891 3.25 9.63968 3.32902 9.78033 3.46967C9.92098 3.61032 10 3.80109 10 4V12H18C18.1812 12 18.3563 12.0656 18.4929 12.1848C18.6295 12.3039 18.7184 12.4684 18.743 12.648L18.75 12.75C18.75 17.72 14.72 21.25 9.75 21.25C7.36305 21.25 5.07387 20.3018 3.38604 18.614C1.69821 16.9261 0.75 14.6369 0.75 12.25C0.75 7.28 4.28 3.25 9.25 3.25ZM12.25 0.75C14.6369 0.75 16.9261 1.69821 18.614 3.38604C20.3018 5.07387 21.25 7.36305 21.25 9.75C21.25 9.94891 21.171 10.1397 21.0303 10.2803C20.8897 10.421 20.6989 10.5 20.5 10.5H12.25C12.0511 10.5 11.8603 10.421 11.7197 10.2803C11.579 10.1397 11.5 9.94891 11.5 9.75V1.5C11.5 1.30109 11.579 1.11032 11.7197 0.96967C11.8603 0.829018 12.0511 0.75 12.25 0.75Z" fill="#0267FF"/>
</svg>
