<svg width="24" height="24" viewBox="0 0 24 24" fill="none" xmlns="http://www.w3.org/2000/svg">
<path d="M15.4291 12.8571C19.6896 12.8571 23.1434 11.3221 23.1434 9.42857C23.1434 7.53502 19.6896 6 15.4291 6C11.1686 6 7.71484 7.53502 7.71484 9.42857C7.71484 11.3221 11.1686 12.8571 15.4291 12.8571Z" stroke="#999999" stroke-linecap="round" stroke-linejoin="round"/>
<path d="M7.71484 9.42773V19.7134C7.71484 21.5992 11.1434 23.142 15.4291 23.142C19.7148 23.142 23.1434 21.5992 23.1434 19.7134V9.42773" stroke="#999999" stroke-linecap="round" stroke-linejoin="round"/>
<path d="M23.1431 14.5711C23.1431 16.4568 19.7146 17.9997 15.4289 17.9997C11.1431 17.9997 7.71456 16.4568 7.71456 14.5711M15.2574 2.57113C13.2543 1.33491 10.9226 0.737041 8.57171 0.856842C4.30314 0.856842 0.857422 2.3997 0.857422 4.28541C0.857422 5.29684 1.85171 6.20541 3.42885 6.85684" stroke="#999999" stroke-linecap="round" stroke-linejoin="round"/>
<path d="M3.42885 17.1423C1.85171 16.4909 0.857422 15.5823 0.857422 14.5709V4.28516" stroke="#999999" stroke-linecap="round" stroke-linejoin="round"/>
<path d="M3.42885 12.0001C1.85171 11.3487 0.857422 10.4401 0.857422 9.42871" stroke="#999999" stroke-linecap="round" stroke-linejoin="round"/>
</svg>
