<svg width="17" height="16" viewBox="0 0 17 16" fill="none" xmlns="http://www.w3.org/2000/svg">
<path d="M14.9 0C15.3243 0 15.7313 0.168571 16.0314 0.468629C16.3314 0.768687 16.5 1.17565 16.5 1.6V11.2C16.5 11.6243 16.3314 12.0313 16.0314 12.3314C15.7313 12.6314 15.3243 12.8 14.9 12.8H3.7L0.5 16V1.6C0.5 1.17565 0.668571 0.768687 0.968629 0.468629C1.26869 0.168571 1.67565 0 2.1 0H14.9ZM2.1 1.6V12.136L3.036 11.2H14.9V1.6H2.1ZM3.7 4H13.3V5.6H3.7V4ZM3.7 7.2H10.9V8.8H3.7V7.2Z" fill="#333333"/>
</svg>
