<svg width="24" height="25" viewBox="0 0 24 25" fill="none" xmlns="http://www.w3.org/2000/svg">
<g clip-path="url(#clip0_927_2381)">
<path d="M23.9885 12.4957C23.9885 11.5124 23.9069 10.7949 23.7301 10.0508H12.239V14.4888H18.984C18.8481 15.5917 18.1138 17.2526 16.4819 18.3687L16.459 18.5173L20.0923 21.2675L20.344 21.292C22.6558 19.2059 23.9885 16.1364 23.9885 12.4957Z" fill="#4285F4"/>
<path d="M12.239 24.1893C15.5435 24.1893 18.3177 23.1262 20.344 21.2926L16.4819 18.3693C15.4484 19.0735 14.0612 19.5652 12.239 19.5652C9.00248 19.5652 6.25551 17.4791 5.27629 14.5957L5.13276 14.6076L1.35483 17.4644L1.30542 17.5986C3.31804 21.5051 7.45214 24.1893 12.239 24.1893Z" fill="#34A853"/>
<path d="M5.27634 14.5963C5.01797 13.8522 4.86844 13.0549 4.86844 12.2311C4.86844 11.4072 5.01797 10.61 5.26275 9.86588L5.25591 9.70741L1.43063 6.80469L1.30547 6.86286C0.475969 8.48395 0 10.3044 0 12.2311C0 14.1578 0.475969 15.9781 1.30547 17.5992L5.27634 14.5963Z" fill="#FBBC05"/>
<path d="M12.239 4.89551C14.5372 4.89551 16.0875 5.8655 16.9714 6.67609L20.4255 3.38077C18.3042 1.45408 15.5435 0.271484 12.239 0.271484C7.45214 0.271484 3.31804 2.95555 1.30542 6.86205L5.2627 9.86507C6.25551 6.98168 9.00248 4.89551 12.239 4.89551Z" fill="#EB4335"/>
</g>
<defs>
<clipPath id="clip0_927_2381">
<rect width="24" height="24" fill="white" transform="translate(0 0.271484)"/>
</clipPath>
</defs>
</svg>
